<svg xmlns="http://www.w3.org/2000/svg" xmlns:xlink="http://www.w3.org/1999/xlink" viewBox="0 0 399.12 137.78"><defs><style>.cls-1{fill:#303030;}.cls-2{fill:url(#linear-gradient);}.cls-3{fill:url(#linear-gradient-2);}.cls-4{fill:url(#linear-gradient-3);}.cls-5{fill:url(#linear-gradient-4);}.cls-6{fill:url(#linear-gradient-5);}</style><linearGradient id="linear-gradient" x1="292.49" y1="26.69" x2="373.9" y2="26.69" gradientUnits="userSpaceOnUse"><stop offset="0" stop-color="#7c4b9f"/><stop offset="1" stop-color="#641b5d"/></linearGradient><linearGradient id="linear-gradient-2" x1="278.19" y1="111.07" x2="399.12" y2="111.07" gradientUnits="userSpaceOnUse"><stop offset="0" stop-color="#7c4b9f"/><stop offset="1" stop-color="#898dd9"/></linearGradient><linearGradient id="linear-gradient-3" x1="118.61" y1="35.36" x2="216.5" y2="35.36" xlink:href="#linear-gradient-2"/><linearGradient id="linear-gradient-4" x1="158.2" y1="100.15" x2="220.87" y2="100.15" xlink:href="#linear-gradient"/><linearGradient id="linear-gradient-5" x1="78.7" y1="69.93" x2="163.04" y2="69.93" xlink:href="#linear-gradient"/></defs><g id="Layer_2" data-name="Layer 2"><g id="Layer_1-2" data-name="Layer 1"><path class="cls-1" d="M0,117.89v-98a5,5,0,0,1,5-5H26.54a57.4,57.4,0,0,1,13,1.34,26.39,26.39,0,0,1,10,4.46A20.16,20.16,0,0,1,56,29.16a34.67,34.67,0,0,1,2.28,13.45,31.26,31.26,0,0,1-1.8,11.21,17,17,0,0,1-5.27,7.4,19.07,19.07,0,0,1-8.16,3.57s0,0-.06,0a.09.09,0,0,0,0,.07.09.09,0,0,0,0,.06.07.07,0,0,0,.06,0,22.18,22.18,0,0,1,10.1,4.38,20.37,20.37,0,0,1,6.26,8.87,37.27,37.27,0,0,1,2.07,13.2,44,44,0,0,1-1.93,13.67A25.14,25.14,0,0,1,53.81,115a24.16,24.16,0,0,1-9.47,5.94,40.34,40.34,0,0,1-13.26,2H5a4.88,4.88,0,0,1-1.92-.39,5.17,5.17,0,0,1-1.62-1.08A5.1,5.1,0,0,1,.38,119.8,5,5,0,0,1,0,117.89ZM19.74,59h6.67c3.91,0,6.94-.58,9.07-1.74a9.33,9.33,0,0,0,4.46-5.33,27.39,27.39,0,0,0,1.27-9.07c0-3.82-.65-6.78-1.93-8.87a9.75,9.75,0,0,0-5.8-4.27,36.06,36.06,0,0,0-9.87-1.13H19.74Zm0,50h7.47q8.92,0,12.13-4.34t3.2-13.4A30.48,30.48,0,0,0,41,80.67a11.24,11.24,0,0,0-5.07-6.07,19,19,0,0,0-9.4-2h-6.8Z"/><path class="cls-1" d="M65.1,117.89v-98a5,5,0,0,1,5-5h9.47a5,5,0,0,1,5,5v98a5,5,0,0,1-5,5H70.1a5,5,0,0,1-5-5Z"/><path class="cls-1" d="M221.91,118.87l-19.72-98A5,5,0,0,1,205,15.35a5,5,0,0,1,2.14-.48h7.21A4.93,4.93,0,0,1,217.5,16,5,5,0,0,1,219.22,19l12.42,66.55a1.06,1.06,0,0,0,.36.63,1.08,1.08,0,0,0,.69.25,1.06,1.06,0,0,0,1-.88L245.34,19a5,5,0,0,1,1.71-3,5,5,0,0,1,3.21-1.17h7.56a5,5,0,0,1,4.87,3.8,5.1,5.1,0,0,1,0,2.2l-19.73,98a5,5,0,0,1-4.9,4H226.81a5,5,0,0,1-4.9-4Z"/><path class="cls-1" d="M249.62,117.06l19.3-98.24A5,5,0,0,1,271,15.61a6.85,6.85,0,0,1,3.74-.81l11.36.07a5,5,0,0,1,3.21,2.07,5,5,0,0,1,.8,3.74l-19.3,98.24a5,5,0,0,1-2.07,3.22c-.78.59-1.75.7-3.75.8l-11.35-.06a5,5,0,0,1-4-5.82Z"/><path class="cls-2" d="M300.49,14.88h68.33a5,5,0,0,1,3.58,1.49A5.09,5.09,0,0,1,373.9,20V21.5a14,14,0,0,1-10.82,13.65l-14.24,3.36H297.49a5,5,0,0,1-5-5l3-13.63c.35-1.46.52-2.6,1.46-3.54A5,5,0,0,1,300.49,14.88Z"/><path class="cls-3" d="M292.3,102.45l16.3-3.14a3.21,3.21,0,0,1,.63-.06h84.89a5,5,0,0,1,5,5l-3,13.64c-.46,1.49-.53,2.59-1.46,3.53a5,5,0,0,1-3.54,1.47H281.55a3.42,3.42,0,0,1-2.38-1,3.34,3.34,0,0,1-1-2.37,17.38,17.38,0,0,1,14.11-17.08Z"/><path class="cls-1" d="M283.29,99.8l83.48-83.93a3.11,3.11,0,0,1,1.08-.74,3.34,3.34,0,0,1,1.29-.26h2.59a3.32,3.32,0,0,1,2.36,1,3.41,3.41,0,0,1,1,2.37v7.11A17.45,17.45,0,0,1,370,37.68l-83.75,84.21a3.43,3.43,0,0,1-2.38,1h-2.33a3.42,3.42,0,0,1-2.38-1,3.34,3.34,0,0,1-1-2.37v-7.42A17.35,17.35,0,0,1,283.29,99.8Z"/><path class="cls-4" d="M216.13,70.73l-19.88-2.21v-.14a44.15,44.15,0,0,0-39.1-48.15,44.13,44.13,0,0,0-27.91,6.49L118.61,9.79A64.16,64.16,0,0,1,159.24.34a64.14,64.14,0,0,1,56.91,70.19Z"/><path class="cls-5" d="M162.52,132.07l-4.32-29.69A38.89,38.89,0,0,0,191,69.9a2,2,0,0,1,2.18-1.66L219.08,71a2,2,0,0,1,1.77,2.24,68.88,68.88,0,0,1-58.33,58.81Z"/><path class="cls-6" d="M152.6,137.78a75.66,75.66,0,0,1-7.68-.39A74.15,74.15,0,0,1,79.1,56.21,73.45,73.45,0,0,1,111.63,2.39a2,2,0,0,1,2.78.62l19.15,30.53a2,2,0,0,1-.52,2.67,34.17,34.17,0,0,0-14.15,24.16A34.14,34.14,0,0,0,149.08,97.6a34.34,34.34,0,0,0,6.57.05,2,2,0,0,1,2.15,1.69L163,135a2,2,0,0,1-1.71,2.27A74.57,74.57,0,0,1,152.6,137.78Z"/></g></g></svg>